<?xml version="1.0" encoding="UTF-8"?>
<svg id="Layer_1" data-name="Layer 1" xmlns="http://www.w3.org/2000/svg" viewBox="0 0 1051.33 243.38">
  <defs>
    <style>
      .cls-1 {
        fill: #182953;
      }

      .cls-2 {
        fill: #1a2a56;
      }
    </style>
  </defs>
  <g>
    <g>
      <rect class="cls-1" x="931.54" y="134.42" width="18.55" height="18.55"/>
      <rect class="cls-1" x="955.5" y="134.42" width="18.55" height="18.55"/>
      <rect class="cls-1" x="931.54" y="158.07" width="18.55" height="18.55"/>
      <rect class="cls-1" x="955.5" y="158.07" width="18.55" height="18.55"/>
    </g>
    <path class="cls-1" d="m810.04,89.47v4.82c2.96.61,9.87,3.51,16.09,9.51,7.54,7.27,9.38,15.92,9.81,18.76,2.19,0,3.88.02,6.07.02.34-2.64,2.25-12.25,10.67-19.72,6.23-5.54,13.01-8.14,15.97-8.61v-4.78c-2.57-.39-11.45-2.67-18.55-10.57-6.18-6.88-7.86-14.51-8.18-17.28-2.19,0-3.67.02-5.87.02-.4,2.79-2.37,12.19-10.61,19.61-5.94,5.35-12.36,7.63-15.39,8.22Z"/>
    <path class="cls-1" d="m884.04,50.76v2.08c1.28.26,4.25,1.51,6.93,4.09,3.25,3.13,4.04,6.86,4.22,8.08.94,0,1.67,0,2.61,0,.15-1.14.97-5.28,4.59-8.49,2.68-2.38,5.6-3.5,6.88-3.71v-2.06c-1.11-.17-4.93-1.15-7.99-4.55-2.66-2.96-3.39-6.25-3.52-7.44-.94,0-1.58,0-2.53,0-.17,1.2-1.02,5.25-4.57,8.45-2.56,2.3-5.32,3.29-6.62,3.54Z"/>
    <path class="cls-1" d="m775.52,142.14v2.08c1.28.26,4.25,1.51,6.93,4.09,3.25,3.13,4.04,6.86,4.22,8.08.94,0,1.67,0,2.61,0,.15-1.14.97-5.28,4.59-8.49,2.68-2.38,5.6-3.5,6.88-3.71v-2.06c-1.11-.17-4.93-1.15-7.99-4.55-2.66-2.96-3.39-6.25-3.52-7.44-.94,0-1.58,0-2.53,0-.17,1.2-1.02,5.25-4.57,8.45-2.56,2.3-5.32,3.29-6.62,3.54Z"/>
    <path class="cls-1" d="m779.04,46.06v2.08c1.28.26,4.25,1.51,6.93,4.09,3.25,3.13,4.04,6.86,4.22,8.08.94,0,1.67,0,2.61,0,.15-1.14.97-5.28,4.59-8.49,2.68-2.38,5.6-3.5,6.88-3.71v-2.06c-1.11-.17-4.93-1.15-7.99-4.55-2.66-2.96-3.39-6.25-3.52-7.44-.94,0-1.58,0-2.53,0-.17,1.2-1.02,5.25-4.57,8.45-2.56,2.3-5.32,3.29-6.62,3.54Z"/>
    <path class="cls-1" d="m732.63,0v180.47c3.68-15.01,15.01-23.85,16.56-25.02l5.08-3.83V20.61h275.94v83.98l21.12,21.12V0h-318.7Zm21.64,222.06c2.06.37,4.2.44,6.55.15l-6.55-.15Z"/>
    <path class="cls-2" d="m1051.33,139.4v103.34h-238.84c5.45-3.9,10.45-8.54,14.72-13.76,1.47-1.77,2.8-3.53,4.12-5.45h24.07l.07-44.68,19.36-16.41v61.09h155.38v-78.31l-68.16-68.16,13.54-13.54,10.16,10.23-.07.07,65.65,65.58Z"/>
    <path class="cls-2" d="m760.82,222.21c-2.36.29-4.49.22-6.55-.15l6.55.15Z"/>
    <path class="cls-2" d="m788.2,242.74c-4.05.66-9.72,1.03-16.05,0h16.05Z"/>
    <path class="cls-2" d="m966.02,60.06l-129.54,125.42,7.88,7.36-.59,2.21h-10.75c-1.47,5.89-5,16.71-13.84,27.31-.37.37-.66.81-1.03,1.18-8.83,10.16-18.55,15.38-23.92,17.89-.74.22-2.94.81-6.04,1.32h-16.05c-5.81-.88-12.22-3.02-18.33-7.21-12.51-8.69-16.86-21.12-17.96-25.25.96,1.18,8.02,10.01,18.4,11.78,2.06.37,4.2.44,6.55.15,1.62-.22,3.31-.59,5-1.25-4.34-1.32-8.24-3.39-11.56-6.11-7.36-5.81-12-14.43-12.37-23.7-.66-14.06,8.91-23.48,12.37-26.42.59-.51,1.03-.81,1.18-.96.74,7.95,3.68,12.59,5.74,15.09,10.16,12.07,33.34,13.69,56.75,1.99l.81.74v-12.59l9.42,8.76,120.12-134.77c2.43-2.72,5.81-4.12,9.2-4.12,3.09,0,6.18,1.18,8.54,3.46,5,4.86,5,12.88,0,17.74Z"/>
    <path class="cls-2" d="m788.2,242.74c-4.05.66-9.72,1.03-16.05,0h16.05Z"/>
    <polygon class="cls-2" points="846.71 195.05 843.77 195.05 844.36 192.84 846.71 195.05"/>
  </g>
  <g>
    <g>
      <path class="cls-1" d="m7.19,109.33c-.25-.15-.44-.46-.55-.9L.08,81.08c-.06-.34-.08-.55-.08-.63,0-.5.35-.76,1.05-.76h3.03c.59,0,.99.08,1.2.23.21.15.37.5.48,1.03l3.2,15.69c.28,1.35.49,3.23.63,5.64h.25c.08-.98.2-1.87.34-2.67.14-.8.35-1.79.63-2.97l3.83-15.56c.14-.5.34-.84.61-1.01.27-.17.67-.25,1.2-.25h2.19c.56,0,.98.08,1.26.25.28.17.48.5.59,1.01l3.66,15.56c.31,1.32.6,3.2.88,5.64h.25c.25-2.58.49-4.44.71-5.59l3.24-15.73c.11-.53.28-.88.5-1.03.22-.15.63-.23,1.22-.23h2.69c.39,0,.68.06.86.19.18.13.27.34.27.65,0,.08-.03.27-.08.55l-6.52,27.3c-.11.48-.29.79-.55.95s-.62.23-1.09.23h-2.82c-.5,0-.89-.08-1.16-.23-.27-.15-.46-.46-.57-.9l-3.83-16.7c-.36-1.43-.59-3.01-.67-4.75h-.25c-.08,1.43-.32,3-.71,4.71l-3.91,16.7c-.11.48-.29.79-.55.95-.25.15-.63.23-1.14.23h-2.61c-.5,0-.88-.08-1.14-.23Z"/>
      <path class="cls-1" d="m44.1,109.24c-.18-.21-.27-.58-.27-1.11v-27c0-.53.09-.9.27-1.11.18-.21.53-.32,1.03-.32h15.35c.5,0,.85.11,1.05.32.2.21.29.58.29,1.11v2.06c0,.53-.1.9-.29,1.11-.2.21-.55.32-1.05.32h-11.4v7.36h9.55c.48,0,.81.11,1.01.32.2.21.29.58.29,1.12v2.06c0,.53-.1.9-.29,1.12-.2.21-.53.31-1.01.31h-9.55v7.74h11.78c.5,0,.85.11,1.05.32.2.21.29.58.29,1.11v2.06c0,.53-.1.9-.29,1.11-.2.21-.55.32-1.05.32h-15.73c-.5,0-.85-.11-1.03-.32Z"/>
      <path class="cls-1" d="m70.49,103.17c-.08-.31-.13-.55-.13-.72,0-.53.32-.9.97-1.09l2.48-.84c.34-.11.56-.17.67-.17.25,0,.46.08.61.25.15.17.3.43.44.8.48,1.26,1.2,2.22,2.17,2.88.97.66,2.14.99,3.51.99,1.91,0,3.34-.36,4.31-1.07.97-.71,1.45-1.81,1.45-3.3,0-1.32-.5-2.25-1.49-2.8-1-.55-2.45-.93-4.35-1.16-2.02-.25-3.76-.61-5.22-1.07-1.46-.46-2.7-1.31-3.72-2.54-1.02-1.23-1.54-2.97-1.54-5.22,0-1.79.41-3.37,1.24-4.73.83-1.36,2.05-2.42,3.66-3.18,1.61-.76,3.55-1.14,5.83-1.14,2.64,0,4.74.53,6.31,1.6,1.57,1.07,2.85,2.66,3.83,4.79.14.36.21.65.21.84,0,.48-.31.84-.93,1.09l-2.36.93c-.25.11-.49.17-.71.17-.2,0-.37-.07-.53-.21-.15-.14-.3-.38-.44-.71-1.04-2.3-2.83-3.45-5.38-3.45-1.85,0-3.21.32-4.08.95-.87.63-1.3,1.61-1.3,2.92s.55,2.34,1.64,2.9c1.09.56,2.71.95,4.84,1.18,2.89.36,5.26,1.18,7.11,2.44,1.85,1.26,2.78,3.45,2.78,6.56,0,2.8-.97,5.03-2.92,6.67-1.95,1.64-4.69,2.46-8.22,2.46-5.61,0-9.18-2.34-10.73-7.02Z"/>
      <path class="cls-1" d="m107.63,109.26c-.2-.2-.29-.55-.29-1.05v-23.6h-6.39c-.5,0-.86-.11-1.05-.32-.2-.21-.29-.58-.29-1.11v-2.06c0-.53.1-.9.29-1.11.2-.21.55-.32,1.05-.32h18.04c.5,0,.85.11,1.05.32.2.21.29.58.29,1.11v2.06c0,.53-.1.9-.29,1.11-.2.21-.55.32-1.05.32h-6.39v23.6c0,.5-.09.86-.27,1.05-.18.2-.53.29-1.03.29h-2.65c-.48,0-.81-.1-1.01-.29Z"/>
      <path class="cls-1" d="m129.4,109.24c-.18-.21-.27-.58-.27-1.11v-27c0-.53.09-.9.27-1.11.18-.21.53-.32,1.03-.32h10.43c2.75,0,4.95.83,6.6,2.48,1.65,1.65,2.48,3.91,2.48,6.77,0,2.16-.45,3.9-1.35,5.24-.9,1.33-2.19,2.25-3.87,2.75.7.53,1.28,1.3,1.72,2.31l4.08,8.87c.11.22.17.46.17.71,0,.48-.32.72-.97.72h-2.65c-.81,0-1.37-.08-1.68-.23-.31-.15-.58-.5-.8-1.03l-3.11-7.15c-.39-.9-.74-1.56-1.03-1.98-.29-.42-.65-.71-1.05-.88-.41-.17-.97-.25-1.7-.25h-3.32v10.09c0,.53-.1.9-.29,1.11-.2.21-.53.32-1.01.32h-2.65c-.5,0-.85-.11-1.03-.32Zm11.25-15.88c1.21,0,2.17-.39,2.9-1.16.73-.77,1.09-1.86,1.09-3.26s-.36-2.44-1.09-3.2c-.73-.76-1.7-1.14-2.9-1.14h-6.27v8.75h6.27Z"/>
      <path class="cls-1" d="m160.44,109.24c-.18-.21-.27-.58-.27-1.11v-27c0-.53.09-.9.27-1.11.18-.21.53-.32,1.03-.32h2.65c.48,0,.81.11,1.01.32.2.21.29.58.29,1.11v10.85h10.81v-10.85c0-.53.09-.9.27-1.11.18-.21.53-.32,1.03-.32h2.61c.5,0,.85.11,1.05.32.2.21.29.58.29,1.11v27c0,.53-.1.9-.29,1.11-.2.21-.55.32-1.05.32h-2.61c-.5,0-.85-.11-1.03-.32-.18-.21-.27-.58-.27-1.11v-11.23h-10.81v11.23c0,.53-.1.9-.29,1.11-.2.21-.53.32-1.01.32h-2.65c-.5,0-.85-.11-1.03-.32Z"/>
      <path class="cls-1" d="m192.91,109.24c-.18-.21-.27-.58-.27-1.11v-27c0-.53.09-.9.27-1.11.18-.21.53-.32,1.03-.32h15.35c.5,0,.85.11,1.05.32.2.21.29.58.29,1.11v2.06c0,.53-.1.9-.29,1.11-.2.21-.55.32-1.05.32h-11.4v7.36h9.55c.48,0,.81.11,1.01.32.2.21.29.58.29,1.12v2.06c0,.53-.1.9-.29,1.12-.2.21-.53.31-1.01.31h-9.55v7.74h11.78c.5,0,.85.11,1.05.32.2.21.29.58.29,1.11v2.06c0,.53-.1.9-.29,1.11-.2.21-.55.32-1.05.32h-15.73c-.5,0-.85-.11-1.03-.32Z"/>
      <path class="cls-1" d="m220.92,109.29c-.21-.18-.32-.53-.32-1.03v-27.3c0-.5.1-.84.29-1.01.2-.17.5-.25.93-.25h2.9c.39,0,.68.08.86.25.18.17.27.5.27,1.01v27.3c0,.5-.1.85-.32,1.03-.21.18-.53.27-.95.27h-2.78c-.39,0-.69-.09-.9-.27Z"/>
      <path class="cls-1" d="m237.28,109.24c-.18-.21-.27-.58-.27-1.11v-27c0-.53.09-.9.27-1.11.18-.21.53-.32,1.03-.32h3.07c.34,0,.6.06.8.17.2.11.36.28.5.5l8.58,15.14c.59,1.07,1.07,2.05,1.45,2.97.38.91.71,1.77,1.01,2.59.29.81.48,1.35.57,1.6h.29c-.31-1.51-.54-2.9-.69-4.16s-.23-2.71-.23-4.33v-13.04c0-.53.1-.9.29-1.11.2-.21.53-.32,1.01-.32h2.44c.5,0,.85.11,1.05.32.2.21.29.58.29,1.11v27c0,.53-.1.9-.29,1.11-.2.21-.55.32-1.05.32h-2.94c-.34,0-.6-.05-.8-.15-.2-.1-.36-.29-.5-.57l-8.62-15.23c-.62-1.09-1.14-2.17-1.56-3.24s-.88-2.34-1.39-3.83h-.25c.5,2.97.76,5.76.76,8.37v13.21c0,.53-.11.9-.32,1.11-.21.21-.55.32-1.03.32h-2.44c-.5,0-.85-.11-1.03-.32Z"/>
      <path class="cls-1" d="m285.78,107.27c-1.95-1.95-2.92-4.63-2.92-8.05v-9.21c0-3.39.97-6.06,2.92-8.01s4.7-2.92,8.27-2.92c5.58,0,9.09,2.35,10.52,7.07.08.28.13.52.13.72,0,.28-.08.5-.23.65-.15.15-.4.3-.74.44l-2.44.8c-.34.11-.56.17-.67.17-.42,0-.76-.36-1.01-1.09-.39-1.29-1.04-2.25-1.96-2.88-.91-.63-2.11-.95-3.6-.95-3.93,0-5.89,1.99-5.89,5.97v9.3c0,4.01,1.96,6.01,5.89,6.01,1.96,0,3.46-.41,4.5-1.22,1.04-.81,1.56-2,1.56-3.58v-2.57h-5.64c-.48,0-.81-.11-1.01-.34-.2-.22-.29-.6-.29-1.14v-1.98c0-.53.1-.9.29-1.11.2-.21.53-.32,1.01-.32h9.34c.5,0,.86.11,1.05.32.2.21.29.58.29,1.11v5.8c0,1.93-.44,3.65-1.3,5.13-.87,1.49-2.14,2.66-3.81,3.51-1.67.85-3.67,1.28-5.99,1.28-3.56,0-6.32-.97-8.27-2.92Z"/>
      <path class="cls-1" d="m315.39,109.24c-.18-.21-.27-.58-.27-1.11v-27c0-.53.09-.9.27-1.11.18-.21.53-.32,1.03-.32h15.35c.5,0,.85.11,1.05.32.2.21.29.58.29,1.11v2.06c0,.53-.1.9-.29,1.11-.2.21-.55.32-1.05.32h-11.4v7.36h9.55c.48,0,.81.11,1.01.32.2.21.29.58.29,1.12v2.06c0,.53-.1.9-.29,1.12-.2.21-.53.31-1.01.31h-9.55v7.74h11.78c.5,0,.85.11,1.05.32.2.21.29.58.29,1.11v2.06c0,.53-.1.9-.29,1.11-.2.21-.55.32-1.05.32h-15.73c-.5,0-.85-.11-1.03-.32Z"/>
      <path class="cls-1" d="m343.36,109.24c-.18-.21-.27-.58-.27-1.11v-27c0-.53.09-.9.27-1.11.18-.21.53-.32,1.03-.32h10.35c2.55,0,4.6.71,6.14,2.12,1.54,1.42,2.31,3.37,2.31,5.87,0,1.51-.25,2.78-.74,3.79-.49,1.01-1.25,1.84-2.29,2.48v.13c2.72,1.23,4.08,3.66,4.08,7.28,0,2.61-.79,4.63-2.36,6.06-1.57,1.43-3.72,2.15-6.44,2.15h-11.06c-.5,0-.85-.11-1.03-.32Zm11.25-17.06c1.09,0,1.93-.32,2.52-.97s.88-1.61.88-2.9-.3-2.21-.9-2.84c-.6-.63-1.45-.95-2.54-.95h-6.22v7.65h6.27Zm.63,12.53c1.15,0,2.06-.34,2.73-1.03.67-.69,1.01-1.67,1.01-2.97s-.34-2.33-1.01-3.03c-.67-.7-1.58-1.05-2.73-1.05h-6.9v8.08h6.9Z"/>
      <path class="cls-1" d="m370.81,108.84c0-.11.06-.34.17-.67l9.55-27.34c.17-.48.36-.79.59-.95.22-.15.57-.23,1.05-.23h2.69c.48,0,.83.08,1.07.23.24.15.44.46.61.9l9.51,27.38c.08.25.13.48.13.67,0,.48-.35.72-1.05.72h-2.52c-.76,0-1.3-.08-1.62-.25-.32-.17-.54-.5-.65-1.01l-1.68-5.34h-10.47l-1.68,5.34c-.14.5-.36.84-.67,1.01s-.83.25-1.56.25h-2.4c-.7,0-1.05-.24-1.05-.72Zm16.4-10.35l-2.65-8.79c-.56-1.99-.9-3.62-1.01-4.88h-.25c-.2,1.57-.52,3.2-.97,4.88l-2.69,8.79h7.57Z"/>
      <path class="cls-1" d="m406.7,107.27c-1.87-1.95-2.8-4.61-2.8-7.97v-18.25c0-.53.09-.89.27-1.07s.53-.27,1.03-.27h2.61c.5,0,.85.09,1.05.27.2.18.29.54.29,1.07v18.3c0,1.91.47,3.37,1.41,4.39.94,1.02,2.35,1.54,4.23,1.54s3.32-.51,4.25-1.54c.93-1.02,1.39-2.49,1.39-4.39v-18.3c0-.53.1-.89.29-1.07.2-.18.55-.27,1.05-.27h2.61c.5,0,.85.09,1.05.27.2.18.29.54.29,1.07v18.25c0,3.36-.94,6.02-2.82,7.97-1.88,1.95-4.58,2.92-8.12,2.92s-6.23-.97-8.1-2.92Z"/>
      <path class="cls-1" d="m436.9,109.24c-.18-.21-.27-.58-.27-1.11v-27c0-.53.09-.9.27-1.11.18-.21.53-.32,1.03-.32h8.79c3.59,0,6.36.98,8.33,2.94,1.96,1.96,2.94,4.68,2.94,8.16v7.66c0,3.48-.98,6.2-2.94,8.16-1.96,1.96-4.74,2.94-8.33,2.94h-8.79c-.5,0-.85-.11-1.03-.32Zm9.95-4.61c1.93,0,3.4-.52,4.39-1.56,1-1.04,1.49-2.57,1.49-4.58v-7.74c0-2.02-.5-3.55-1.49-4.58-1-1.04-2.46-1.56-4.39-1.56h-4.96v20.02h4.96Z"/>
      <path class="cls-1" d="m468.53,109.24c-.18-.21-.27-.58-.27-1.11v-27c0-.53.09-.9.27-1.11.18-.21.53-.32,1.03-.32h15.35c.5,0,.85.11,1.05.32.2.21.29.58.29,1.11v2.06c0,.53-.1.9-.29,1.11-.2.21-.55.32-1.05.32h-11.4v7.36h9.55c.48,0,.81.11,1.01.32.2.21.29.58.29,1.12v2.06c0,.53-.1.9-.29,1.12-.2.21-.53.31-1.01.31h-9.55v7.74h11.78c.5,0,.85.11,1.05.32.2.21.29.58.29,1.11v2.06c0,.53-.1.9-.29,1.11-.2.21-.55.32-1.05.32h-15.73c-.5,0-.85-.11-1.03-.32Z"/>
      <path class="cls-1" d="m496.5,109.24c-.18-.21-.27-.58-.27-1.11v-27c0-.53.09-.9.27-1.11.18-.21.53-.32,1.03-.32h8.79c3.59,0,6.36.98,8.33,2.94,1.96,1.96,2.94,4.68,2.94,8.16v7.66c0,3.48-.98,6.2-2.94,8.16-1.96,1.96-4.74,2.94-8.33,2.94h-8.79c-.5,0-.85-.11-1.03-.32Zm9.95-4.61c1.93,0,3.4-.52,4.39-1.56s1.49-2.57,1.49-4.58v-7.74c0-2.02-.5-3.55-1.49-4.58-1-1.04-2.46-1.56-4.39-1.56h-4.96v20.02h4.96Z"/>
      <path class="cls-1" d="m528.18,109.29c-.21-.18-.31-.53-.31-1.03v-27.3c0-.5.1-.84.29-1.01.2-.17.5-.25.93-.25h2.9c.39,0,.68.08.86.25s.27.5.27,1.01v27.3c0,.5-.11.85-.32,1.03s-.53.27-.95.27h-2.78c-.39,0-.69-.09-.9-.27Z"/>
      <path class="cls-1" d="m544.54,109.24c-.18-.21-.27-.58-.27-1.11v-27c0-.53.09-.9.27-1.11.18-.21.53-.32,1.03-.32h15.35c.5,0,.85.11,1.05.32.2.21.29.58.29,1.11v2.06c0,.53-.1.9-.29,1.11-.2.21-.55.32-1.05.32h-11.4v7.36h9.55c.48,0,.81.11,1.01.32.2.21.29.58.29,1.12v2.06c0,.53-.1.9-.29,1.12-.2.21-.53.31-1.01.31h-9.55v7.74h11.78c.5,0,.85.11,1.05.32.2.21.29.58.29,1.11v2.06c0,.53-.1.9-.29,1.11-.2.21-.55.32-1.05.32h-15.73c-.5,0-.85-.11-1.03-.32Z"/>
      <path class="cls-1" d="m572.51,109.24c-.18-.21-.27-.58-.27-1.11v-27c0-.53.09-.9.27-1.11.18-.21.53-.32,1.03-.32h3.07c.34,0,.6.06.8.17s.36.28.5.5l8.58,15.14c.59,1.07,1.07,2.05,1.45,2.97.38.91.72,1.77,1.01,2.59.29.81.48,1.35.57,1.6h.29c-.31-1.51-.54-2.9-.69-4.16s-.23-2.71-.23-4.33v-13.04c0-.53.1-.9.29-1.11.2-.21.53-.32,1.01-.32h2.44c.5,0,.86.11,1.05.32.2.21.29.58.29,1.11v27c0,.53-.1.9-.29,1.11-.2.21-.55.32-1.05.32h-2.94c-.34,0-.6-.05-.8-.15-.2-.1-.36-.29-.5-.57l-8.62-15.23c-.62-1.09-1.14-2.17-1.56-3.24-.42-1.07-.88-2.34-1.39-3.83h-.25c.5,2.97.76,5.76.76,8.37v13.21c0,.53-.11.9-.32,1.11-.21.21-.55.32-1.03.32h-2.44c-.5,0-.85-.11-1.03-.32Z"/>
      <path class="cls-1" d="m603.78,103.17c-.08-.31-.13-.55-.13-.72,0-.53.32-.9.97-1.09l2.48-.84c.34-.11.56-.17.67-.17.25,0,.46.08.61.25.15.17.3.43.44.8.48,1.26,1.2,2.22,2.17,2.88.97.66,2.14.99,3.51.99,1.91,0,3.34-.36,4.31-1.07.97-.71,1.45-1.81,1.45-3.3,0-1.32-.5-2.25-1.49-2.8-1-.55-2.45-.93-4.35-1.16-2.02-.25-3.76-.61-5.21-1.07-1.46-.46-2.7-1.31-3.72-2.54-1.02-1.23-1.54-2.97-1.54-5.22,0-1.79.41-3.37,1.24-4.73.83-1.36,2.05-2.42,3.66-3.18,1.61-.76,3.55-1.14,5.82-1.14,2.64,0,4.74.53,6.31,1.6s2.85,2.66,3.83,4.79c.14.36.21.65.21.84,0,.48-.31.84-.93,1.09l-2.35.93c-.25.11-.49.17-.72.17-.2,0-.37-.07-.53-.21-.15-.14-.3-.38-.44-.71-1.04-2.3-2.83-3.45-5.38-3.45-1.85,0-3.21.32-4.08.95-.87.63-1.3,1.61-1.3,2.92s.55,2.34,1.64,2.9c1.09.56,2.71.95,4.84,1.18,2.89.36,5.26,1.18,7.11,2.44,1.85,1.26,2.78,3.45,2.78,6.56,0,2.8-.97,5.03-2.92,6.67-1.95,1.64-4.69,2.46-8.22,2.46-5.61,0-9.18-2.34-10.73-7.02Z"/>
      <path class="cls-1" d="m640.92,109.26c-.2-.2-.29-.55-.29-1.05v-23.6h-6.39c-.5,0-.86-.11-1.05-.32s-.29-.58-.29-1.11v-2.06c0-.53.1-.9.29-1.11.2-.21.55-.32,1.05-.32h18.04c.5,0,.85.11,1.05.32.2.21.29.58.29,1.11v2.06c0,.53-.1.9-.29,1.11-.2.21-.55.32-1.05.32h-6.39v23.6c0,.5-.09.86-.27,1.05-.18.2-.53.29-1.03.29h-2.65c-.48,0-.81-.1-1.01-.29Z"/>
      <path class="cls-1" d="m662.68,109.24c-.18-.21-.27-.58-.27-1.11v-27c0-.53.09-.9.27-1.11.18-.21.53-.32,1.03-.32h15.35c.5,0,.85.11,1.05.32.2.21.29.58.29,1.11v2.06c0,.53-.1.9-.29,1.11-.2.21-.55.32-1.05.32h-11.4v7.36h9.55c.48,0,.81.11,1.01.32.2.21.29.58.29,1.12v2.06c0,.53-.1.9-.29,1.12-.2.21-.53.31-1.01.31h-9.55v7.74h11.78c.5,0,.85.11,1.05.32.2.21.29.58.29,1.11v2.06c0,.53-.1.9-.29,1.11-.2.21-.55.32-1.05.32h-15.73c-.5,0-.85-.11-1.03-.32Z"/>
    </g>
    <g>
      <path class="cls-1" d="m174.24,161.4c-1.95-1.95-2.92-4.63-2.92-8.05v-9.21c0-3.39.97-6.06,2.92-8.01,1.95-1.95,4.7-2.92,8.27-2.92,5.58,0,9.09,2.35,10.52,7.07.08.28.13.52.13.72,0,.28-.08.5-.23.65-.15.15-.4.3-.74.44l-2.44.8c-.34.11-.56.17-.67.17-.42,0-.76-.36-1.01-1.09-.39-1.29-1.04-2.25-1.96-2.88-.91-.63-2.11-.95-3.6-.95-3.93,0-5.89,1.99-5.89,5.97v9.3c0,4.01,1.96,6.01,5.89,6.01,1.96,0,3.46-.41,4.5-1.22,1.04-.81,1.56-2,1.56-3.58v-2.57h-5.64c-.48,0-.81-.11-1.01-.34-.2-.22-.29-.6-.29-1.14v-1.98c0-.53.1-.9.29-1.11.2-.21.53-.32,1.01-.32h9.34c.5,0,.86.11,1.05.32.2.21.29.58.29,1.11v5.8c0,1.93-.44,3.65-1.3,5.13-.87,1.49-2.14,2.66-3.81,3.51-1.67.85-3.67,1.28-5.99,1.28-3.56,0-6.32-.97-8.27-2.92Z"/>
      <path class="cls-1" d="m203.85,163.37c-.18-.21-.27-.58-.27-1.11v-27c0-.53.09-.9.27-1.11.18-.21.51-.32.99-.32h2.69c.48,0,.81.11,1.01.32.2.21.29.58.29,1.11v23.51h10.52c.48,0,.81.11,1.01.32.2.21.29.58.29,1.11v2.06c0,.53-.1.9-.29,1.11-.2.21-.53.32-1.01.32h-14.51c-.48,0-.81-.11-.99-.32Z"/>
      <path class="cls-1" d="m226.75,162.97c0-.11.06-.34.17-.67l9.55-27.34c.17-.48.36-.79.59-.95.22-.15.57-.23,1.05-.23h2.69c.48,0,.83.08,1.07.23.24.15.44.46.61.9l9.51,27.38c.08.25.13.48.13.67,0,.48-.35.72-1.05.72h-2.52c-.76,0-1.3-.08-1.62-.25-.32-.17-.54-.5-.65-1.01l-1.68-5.34h-10.47l-1.68,5.34c-.14.5-.36.84-.67,1.01s-.83.25-1.56.25h-2.4c-.7,0-1.05-.24-1.05-.72Zm16.4-10.35l-2.65-8.79c-.56-1.99-.9-3.62-1.01-4.88h-.25c-.2,1.57-.52,3.2-.97,4.88l-2.69,8.79h7.57Z"/>
      <path class="cls-1" d="m260.96,163.37c-.18-.21-.27-.58-.27-1.11v-27c0-.53.09-.9.27-1.11.18-.21.53-.32,1.03-.32h3.07c.34,0,.6.06.8.17.2.11.36.28.5.5l8.58,15.14c.59,1.07,1.07,2.05,1.45,2.97.38.91.71,1.77,1.01,2.59.29.81.48,1.35.57,1.6h.29c-.31-1.51-.54-2.9-.69-4.16-.15-1.26-.23-2.71-.23-4.33v-13.04c0-.53.1-.9.29-1.11.2-.21.53-.32,1.01-.32h2.44c.5,0,.85.11,1.05.32.2.21.29.58.29,1.11v27c0,.53-.1.9-.29,1.11-.2.21-.55.32-1.05.32h-2.94c-.34,0-.6-.05-.8-.15-.2-.1-.36-.29-.5-.57l-8.62-15.23c-.62-1.09-1.14-2.17-1.56-3.24s-.88-2.34-1.39-3.83h-.25c.5,2.97.76,5.76.76,8.37v13.21c0,.53-.11.9-.32,1.11-.21.21-.55.32-1.03.32h-2.44c-.5,0-.85-.11-1.03-.32Z"/>
      <path class="cls-1" d="m292.34,163.37c-.18-.21-.27-.58-.27-1.11v-2.06c0-.53.14-1.02.42-1.47l13.33-20.02h-12.28c-.48,0-.81-.11-1.01-.32-.2-.21-.29-.58-.29-1.11v-2.02c0-.53.1-.9.29-1.11.2-.21.53-.32,1.01-.32h17.16c.48,0,.81.11,1.01.32.2.21.29.58.29,1.11v2.02c0,.56-.14,1.07-.42,1.51l-13.29,19.98h12.62c.5,0,.85.11,1.05.32.2.21.29.58.29,1.11v2.06c0,.53-.1.9-.29,1.11-.2.21-.55.32-1.05.32h-17.54c-.5,0-.85-.11-1.03-.32Z"/>
      <path class="cls-1" d="m322.16,163.37c-.18-.21-.27-.58-.27-1.11v-27c0-.53.09-.9.27-1.11.18-.21.53-.32,1.03-.32h15.35c.5,0,.85.11,1.05.32.2.21.29.58.29,1.11v2.06c0,.53-.1.9-.29,1.11-.2.21-.55.32-1.05.32h-11.4v7.36h9.55c.48,0,.81.11,1.01.32.2.21.29.58.29,1.12v2.06c0,.53-.1.9-.29,1.12-.2.21-.53.31-1.01.31h-9.55v7.74h11.78c.5,0,.85.11,1.05.32.2.21.29.58.29,1.11v2.06c0,.53-.1.9-.29,1.11-.2.21-.55.32-1.05.32h-15.73c-.5,0-.85-.11-1.03-.32Z"/>
      <path class="cls-1" d="m350.13,163.37c-.18-.21-.27-.58-.27-1.11v-27c0-.53.09-.9.27-1.11.18-.21.53-.32,1.03-.32h3.07c.34,0,.6.06.8.17.2.11.36.28.5.5l8.58,15.14c.59,1.07,1.07,2.05,1.45,2.97.38.91.71,1.77,1.01,2.59.29.81.48,1.35.57,1.6h.29c-.31-1.51-.54-2.9-.69-4.16-.15-1.26-.23-2.71-.23-4.33v-13.04c0-.53.1-.9.29-1.11.2-.21.53-.32,1.01-.32h2.44c.5,0,.85.11,1.05.32.2.21.29.58.29,1.11v27c0,.53-.1.9-.29,1.11-.2.21-.55.32-1.05.32h-2.94c-.34,0-.6-.05-.8-.15-.2-.1-.36-.29-.5-.57l-8.62-15.23c-.62-1.09-1.14-2.17-1.56-3.24-.42-1.07-.88-2.34-1.39-3.83h-.25c.5,2.97.76,5.76.76,8.37v13.21c0,.53-.11.9-.32,1.11-.21.21-.55.32-1.03.32h-2.44c-.5,0-.85-.11-1.03-.32Z"/>
      <path class="cls-1" d="m382.98,163.37c-.18-.21-.27-.58-.27-1.11v-27c0-.53.09-.9.27-1.11.18-.21.53-.32,1.03-.32h8.79c3.59,0,6.37.98,8.33,2.94,1.96,1.96,2.94,4.68,2.94,8.16v7.66c0,3.48-.98,6.2-2.94,8.16-1.96,1.96-4.74,2.94-8.33,2.94h-8.79c-.5,0-.85-.11-1.03-.32Zm9.95-4.61c1.93,0,3.4-.52,4.4-1.56,1-1.04,1.49-2.57,1.49-4.58v-7.74c0-2.02-.5-3.55-1.49-4.58-1-1.04-2.46-1.56-4.4-1.56h-4.96v20.02h4.96Z"/>
      <path class="cls-1" d="m428.49,163.37c-.18-.21-.27-.58-.27-1.11v-27c0-.53.09-.9.27-1.11.18-.21.53-.32,1.03-.32h10.43c2.75,0,4.95.83,6.6,2.48,1.65,1.65,2.48,3.91,2.48,6.77,0,2.16-.45,3.9-1.35,5.24-.9,1.33-2.19,2.25-3.87,2.75.7.53,1.28,1.3,1.72,2.31l4.08,8.87c.11.22.17.46.17.71,0,.48-.32.72-.97.72h-2.65c-.81,0-1.37-.08-1.68-.23-.31-.15-.58-.5-.8-1.03l-3.11-7.15c-.39-.9-.74-1.56-1.03-1.98-.29-.42-.65-.71-1.05-.88-.41-.17-.97-.25-1.7-.25h-3.32v10.09c0,.53-.1.9-.29,1.11-.2.21-.53.32-1.01.32h-2.65c-.5,0-.85-.11-1.03-.32Zm11.25-15.88c1.21,0,2.17-.39,2.9-1.16.73-.77,1.09-1.86,1.09-3.26s-.36-2.44-1.09-3.2c-.73-.76-1.7-1.14-2.9-1.14h-6.27v8.75h6.27Z"/>
      <path class="cls-1" d="m459.53,163.37c-.18-.21-.27-.58-.27-1.11v-27c0-.53.09-.9.27-1.11.18-.21.53-.32,1.03-.32h15.35c.5,0,.85.11,1.05.32.2.21.29.58.29,1.11v2.06c0,.53-.1.9-.29,1.11-.2.21-.55.32-1.05.32h-11.4v7.36h9.55c.48,0,.81.11,1.01.32.2.21.29.58.29,1.12v2.06c0,.53-.1.9-.29,1.12-.2.21-.53.31-1.01.31h-9.55v7.74h11.78c.5,0,.85.11,1.05.32.2.21.29.58.29,1.11v2.06c0,.53-.1.9-.29,1.11-.2.21-.55.32-1.05.32h-15.73c-.5,0-.85-.11-1.03-.32Z"/>
      <path class="cls-1" d="m487.54,163.42c-.21-.18-.32-.53-.32-1.03v-27.3c0-.5.1-.84.29-1.01.2-.17.5-.25.93-.25h2.9c.39,0,.68.08.86.25.18.17.27.5.27,1.01v27.3c0,.5-.1.85-.32,1.03-.21.18-.53.27-.95.27h-2.78c-.39,0-.69-.09-.9-.27Z"/>
      <path class="cls-1" d="m503.91,163.37c-.18-.21-.27-.58-.27-1.11v-27c0-.53.09-.9.27-1.11.18-.21.53-.32,1.03-.32h3.07c.34,0,.6.06.8.17.2.11.36.28.5.5l8.58,15.14c.59,1.07,1.07,2.05,1.45,2.97.38.91.71,1.77,1.01,2.59.29.81.48,1.35.57,1.6h.29c-.31-1.51-.54-2.9-.69-4.16-.15-1.26-.23-2.71-.23-4.33v-13.04c0-.53.1-.9.29-1.11.2-.21.53-.32,1.01-.32h2.44c.5,0,.85.11,1.05.32.2.21.29.58.29,1.11v27c0,.53-.1.9-.29,1.11-.2.21-.55.32-1.05.32h-2.94c-.34,0-.6-.05-.8-.15-.2-.1-.36-.29-.5-.57l-8.62-15.23c-.62-1.09-1.14-2.17-1.56-3.24s-.88-2.34-1.39-3.83h-.25c.5,2.97.76,5.76.76,8.37v13.21c0,.53-.11.9-.32,1.11-.21.21-.55.32-1.03.32h-2.44c-.5,0-.85-.11-1.03-.32Z"/>
    </g>
  </g>
  <circle class="cls-1" cx="379.75" cy="71.88" r="2.02"/>
  <circle class="cls-1" cx="386.36" cy="71.88" r="2.02"/>
  <circle class="cls-1" cx="236.13" cy="129.15" r="2.02"/>
  <circle class="cls-1" cx="242.73" cy="129.15" r="2.02"/>
</svg>